# xmcd CD database file
#
# Track frame offsets:
#	150
#	22032
#	44782
#	74120
#	95173
#	120850
#	148492
#	176173
#	195381
#	222329
#
# Disc length: 3067 seconds
#
# Revision: 0
# Processed by: cddbd v1.5.2PL0 Copyright (c) Steve Scherf et al.
# Submitted via: CDex 1.70beta2
#
DISCID=a50bf90a
DTITLE=Chantale Gagné Trio - Silent Strength
DYEAR=2008
DGENRE=Jazz
TTITLE0=Second Wave
TTITLE1=Tranquilité
TTITLE2=In My Mind
TTITLE3=Silent Strength
TTITLE4=New York Nights
TTITLE5=I Mean You
TTITLE6=Rêves
TTITLE7=Peri's Scope
TTITLE8=But Beautiful
TTITLE9=Subway Rag
EXTD=YEAR: 2008
EXTT0=
EXTT1=
EXTT2=
EXTT3=
EXTT4=
EXTT5=
EXTT6=
EXTT7=
EXTT8=
EXTT9=
PLAYORDER=
